<?xml version="1.0" encoding="UTF-8"?>
<svg width="512px" height="512px" viewBox="0 0 512 512" version="1.1" xmlns="http://www.w3.org/2000/svg" xmlns:xlink="http://www.w3.org/1999/xlink">
    <!-- Generator: Sketch 52.6 (67491) - http://www.bohemiancoding.com/sketch -->
    <title>Untitled 2</title>
    <desc>Created with Sketch.</desc>
    <g id="Page-1" stroke="none" stroke-width="1" fill="none" fill-rule="evenodd">
        <g id="icon-minus" fill="#ffffff">
            <path d="M256,0 C114.618,0 0,114.618 0,256 C0,397.382 114.618,512 256,512 C397.382,512 512,397.382 512,256 C512,114.618 397.382,0 256,0 Z M256,469.333 C138.182,469.333 42.667,373.818 42.667,256 C42.667,138.182 138.182,42.667 256,42.667 C373.818,42.667 469.333,138.182 469.333,256 C469.333,373.818 373.818,469.333 256,469.333 Z" id="Shape" fill-rule="nonzero"></path>
            <path d="M383.996,234.667 L128.038,234.667 C116.256,234.667 106.705,244.218 106.705,256 C106.705,267.782 116.256,277.333 128.038,277.333 L383.995,277.333 C395.777,277.333 405.328,267.782 405.328,256 C405.328,244.218 395.778,234.667 383.996,234.667 Z" id="Path"></path>
        </g>
    </g>
</svg>