<?xml version="1.0" encoding="UTF-8"?>
<svg width="512px" height="512px" viewBox="0 0 512 512" version="1.1" xmlns="http://www.w3.org/2000/svg" xmlns:xlink="http://www.w3.org/1999/xlink">
    <!-- Generator: Sketch 52.6 (67491) - http://www.bohemiancoding.com/sketch -->
    <title>Untitled 2</title>
    <desc>Created with Sketch.</desc>
    <g id="Page-1" stroke="none" stroke-width="1" fill="none" fill-rule="evenodd">
        <g id="icon-remove-w" fill="#ffffff">
            <path d="M256,0 C114.613281,0 0,114.613281 0,256 C0,397.386719 114.613281,512 256,512 C397.386719,512 512,397.386719 512,256 C511.832031,114.683594 397.316406,0.167969 256,0 Z M256,480 C132.289062,480 32,379.710938 32,256 C32,132.289062 132.289062,32 256,32 C379.710938,32 480,132.289062 480,256 C479.867188,379.65625 379.65625,479.867188 256,480 Z" id="Shape" fill-rule="nonzero"></path>
            <path d="M380.449219,131.550781 C374.199219,125.304688 364.070312,125.304688 357.824219,131.550781 L256,233.375 L154.175781,131.550781 C148.035156,125.195312 137.90625,125.019531 131.550781,131.160156 C125.195312,137.296875 125.019531,147.425781 131.160156,153.78125 C131.289062,153.914062 131.417969,154.046875 131.550781,154.175781 L233.375,256 L131.550781,357.824219 C125.195312,363.960938 125.019531,374.089844 131.160156,380.449219 C137.296875,386.804688 147.425781,386.980469 153.78125,380.839844 C153.914062,380.710938 154.046875,380.582031 154.175781,380.449219 L256,278.625 L357.824219,380.449219 C364.179688,386.585938 374.308594,386.410156 380.445312,380.054688 C386.433594,373.855469 386.433594,364.023438 380.445312,357.824219 L278.625,256 L380.449219,154.175781 C386.695312,147.929688 386.695312,137.800781 380.449219,131.550781 Z" id="Path"></path>
        </g>
    </g>
</svg>