<?xml version="1.0" encoding="UTF-8"?>
<svg width="512px" height="512px" viewBox="0 0 512 512" version="1.1" xmlns="http://www.w3.org/2000/svg" xmlns:xlink="http://www.w3.org/1999/xlink">
    <!-- Generator: Sketch 52.6 (67491) - http://www.bohemiancoding.com/sketch -->
    <title>edit-2</title>
    <desc>Created with Sketch.</desc>
    <g id="Page-1" stroke="none" stroke-width="1" fill="none" fill-rule="evenodd">
        <g id="edit-2" fill="#ffffff">
            <path d="M261.333333,42.6666667 L237.866667,42.6666667 C230.826667,18.1333333 208.213333,0 181.333333,0 C154.453333,0 131.84,18.1333333 124.8,42.6666667 L101.333333,42.6666667 C92.5866667,42.6666667 85.3333333,49.92 85.3333333,58.6666667 L85.3333333,90.6666667 C85.3333333,111.146667 102.186667,128 122.666667,128 L240,128 C260.48,128 277.333333,111.146667 277.333333,90.6666667 L277.333333,58.6666667 C277.333333,49.92 270.08,42.6666667 261.333333,42.6666667 Z" id="Path"></path>
            <path d="M304,64 L298.666667,64 L298.666667,90.6666667 C298.666667,123.093333 272.426667,149.333333 240,149.333333 L122.666667,149.333333 C90.24,149.333333 64,123.093333 64,90.6666667 L64,64 L58.6666667,64 C26.24,64 0,90.24 0,122.666667 L0,389.333333 C0,421.76 26.24,448 58.6666667,448 L216.106667,448 L220.8,421.76 C222.933333,409.813333 228.48,399.146667 237.013333,390.4 L254.08,373.333333 L80,373.333333 C71.2533333,373.333333 64,366.08 64,357.333333 C64,348.586667 71.2533333,341.333333 80,341.333333 L282.666667,341.333333 C283.733333,341.333333 284.586667,341.333333 285.653333,341.76 L285.866667,341.76 L362.666667,264.96 L362.666667,122.666667 C362.666667,90.24 336.426667,64 304,64 Z M282.666667,304 L80,304 C71.2533333,304 64,296.746667 64,288 C64,279.253333 71.2533333,272 80,272 L282.666667,272 C291.413333,272 298.666667,279.253333 298.666667,288 C298.666667,296.746667 291.413333,304 282.666667,304 Z M282.666667,234.666667 L80,234.666667 C71.2533333,234.666667 64,227.413333 64,218.666667 C64,209.92 71.2533333,202.666667 80,202.666667 L282.666667,202.666667 C291.413333,202.666667 298.666667,209.92 298.666667,218.666667 C298.666667,227.413333 291.413333,234.666667 282.666667,234.666667 Z" id="Shape" fill-rule="nonzero"></path>
            <path d="M267.242667,512 C263.04,512 258.944,510.336 255.936,507.306667 C252.245333,503.616 250.581333,498.368 251.498667,493.205333 L262.805333,429.098667 C263.36,425.877333 264.938667,422.890667 267.242667,420.565333 L425.642667,262.186667 C445.098667,242.688 464.213333,247.957333 474.666667,258.410667 L501.056,284.8 C515.626667,299.349333 515.626667,323.029333 501.056,337.6 L342.656,496 C340.352,498.325333 337.365333,499.882667 334.122667,500.437333 L270.016,511.744 C269.098667,511.914667 268.16,512 267.242667,512 Z" id="Shape" fill-rule="nonzero"></path>
        </g>
    </g>
</svg>