<?xml version="1.0" encoding="UTF-8"?>
<svg width="512px" height="512px" viewBox="0 0 512 512" version="1.1" xmlns="http://www.w3.org/2000/svg" xmlns:xlink="http://www.w3.org/1999/xlink">
    <!-- Generator: Sketch 52.6 (67491) - http://www.bohemiancoding.com/sketch -->
    <title>Untitled 2</title>
    <desc>Created with Sketch.</desc>
    <g id="Page-1" stroke="none" stroke-width="1" fill="none" fill-rule="evenodd">
        <g id="icon-plus" fill="#ffffff">
            <path d="M256,0 C114.833,0 0,114.833 0,256 C0,397.167 114.833,512 256,512 C397.167,512 512,397.147 512,256 C512,114.853 397.167,0 256,0 Z M256,472.341 C136.725,472.341 39.659,375.295 39.659,256 C39.659,136.705 136.725,39.659 256,39.659 C375.275,39.659 472.341,136.705 472.341,256 C472.341,375.295 375.295,472.341 256,472.341 Z" id="Shape" fill-rule="nonzero"></path>
            <path d="M355.148,234.386 L275.83,234.386 L275.83,155.068 C275.83,144.122 266.966,135.238 256,135.238 C245.034,135.238 236.17,144.122 236.17,155.068 L236.17,234.386 L156.852,234.386 C145.886,234.386 137.022,243.27 137.022,254.216 C137.022,265.162 145.886,274.046 156.852,274.046 L236.17,274.046 L236.17,353.364 C236.17,364.31 245.034,373.194 256,373.194 C266.966,373.194 275.83,364.31 275.83,353.364 L275.83,274.046 L355.148,274.046 C366.114,274.046 374.978,265.162 374.978,254.216 C374.978,243.27 366.114,234.386 355.148,234.386 Z" id="Path"></path>
        </g>
    </g>
</svg>