<?xml version="1.0" encoding="UTF-8"?>
<svg width="491px" height="257px" viewBox="0 0 491 257" version="1.1" xmlns="http://www.w3.org/2000/svg" xmlns:xlink="http://www.w3.org/1999/xlink">
    <!-- Generator: Sketch 52.6 (67491) - http://www.bohemiancoding.com/sketch -->
    <title>icon-up</title>
    <desc>Created with Sketch.</desc>
    <g id="Page-1" stroke="none" stroke-width="1" fill="none" fill-rule="evenodd">
        <g id="icon-up" transform="translate(-1.000000, 0.000000)">
            <path d="M488.411,238.047 L253.744,3.38 C249.579,-0.784 242.827,-0.784 238.661,3.38 L3.994,238.047 C-0.099,242.284 0.018,249.037 4.256,253.13 C8.39,257.123 14.943,257.123 19.077,253.13 L246.192,26.015 L473.307,253.151 C477.544,257.244 484.297,257.127 488.39,252.89 C492.383,248.756 492.383,242.202 488.39,238.069 L488.411,238.047 Z" id="Path" fill="#FFC107"></path>
            <path d="M480.859,256.266 C478.028,256.271 475.311,255.151 473.307,253.151 L246.192,26.015 L19.077,253.151 C14.84,257.244 8.087,257.127 3.994,252.889 C0.001,248.755 0.001,242.202 3.994,238.068 L238.661,3.401 C242.826,-0.763 249.578,-0.763 253.744,3.401 L488.411,238.068 C492.57,242.24 492.559,248.994 488.387,253.153 C486.388,255.146 483.681,256.265 480.859,256.266 Z" id="Path" fill="#000000"></path>
        </g>
    </g>
</svg>